<svg id="Layer_1" data-name="Layer 1" xmlns="http://www.w3.org/2000/svg" viewBox="0 0 797.12 79.1"><defs><style>.cls-1{fill:#abc452;}.cls-2{fill:#fff;}</style></defs><title>logo</title><path class="cls-1" d="M40.92,28.58a29.89,29.89,0,0,1,5.88.5,21,21,0,0,1,3.46.92l-1.42,6.67a14.4,14.4,0,0,0-2.83-1,18.91,18.91,0,0,0-4.5-.46q-5.42,0-7.58,3a13.18,13.18,0,0,0-2.17,8v3.75H48.42v6.5H31.75V93.26H24V46q0-8.33,4.08-12.88T40.92,28.58Z" transform="translate(-19.37 -28.58)"/><path class="cls-1" d="M90.68,92q-2.67.67-7,1.42a60.53,60.53,0,0,1-10.13.75,21.47,21.47,0,0,1-8.42-1.46,13.57,13.57,0,0,1-5.5-4.12,16.74,16.74,0,0,1-3-6.29,32.75,32.75,0,0,1-.92-8V49.92h7.75V72.59q0,7.92,2.5,11.33t8.42,3.42q1.25,0,2.58-.08t2.5-.21l2.13-.25a6.24,6.24,0,0,0,1.38-.29V49.92h7.75V92Z" transform="translate(-19.37 -28.58)"/><path class="cls-1" d="M104,51.17q2.67-.67,7.08-1.42A61.3,61.3,0,0,1,121.27,49a22,22,0,0,1,8.58,1.46,13.44,13.44,0,0,1,5.46,4.08,15.81,15.81,0,0,1,2.88,6.29,36.58,36.58,0,0,1,.83,8.08V93.26h-7.75V70.59a37,37,0,0,0-.54-6.83,11.58,11.58,0,0,0-1.79-4.58,7.1,7.1,0,0,0-3.33-2.54,14.66,14.66,0,0,0-5.17-.79q-1.25,0-2.58.08t-2.54.21q-1.21.13-2.17,0.29l-1.37.25V93.26H104V51.17Z" transform="translate(-19.37 -28.58)"/><path class="cls-1" d="M179.86,29.92l7.75-1.33V92q-2.67.75-6.83,1.5a54.58,54.58,0,0,1-9.58.75,24.3,24.3,0,0,1-9-1.58,19.28,19.28,0,0,1-6.83-4.5A19.86,19.86,0,0,1,151,81a27.33,27.33,0,0,1-1.54-9.46,30.82,30.82,0,0,1,1.29-9.17,20.56,20.56,0,0,1,3.79-7.17,17.25,17.25,0,0,1,6.13-4.67,19.65,19.65,0,0,1,8.29-1.67,20.13,20.13,0,0,1,6.63,1,21,21,0,0,1,4.29,1.92V29.92Zm0,29.17a16,16,0,0,0-4.08-2.25,15.37,15.37,0,0,0-5.83-1.08A12.47,12.47,0,0,0,164.23,57a10.48,10.48,0,0,0-3.88,3.33,14.08,14.08,0,0,0-2.17,5,28,28,0,0,0-.67,6.25q0,7.58,3.75,11.71a12.86,12.86,0,0,0,10,4.13,39.82,39.82,0,0,0,5.29-.29,25,25,0,0,0,3.29-.62V59.09Z" transform="translate(-19.37 -28.58)"/><path class="cls-2" d="M214.94,48.84A22.48,22.48,0,0,1,222.82,50,12.78,12.78,0,0,1,228,53.46a13,13,0,0,1,2.79,5.25,25.4,25.4,0,0,1,.83,6.71V92.51l-2.79.46q-1.79.29-4,.54T219.9,94q-2.63.21-5.21,0.21a28.54,28.54,0,0,1-6.75-.75A15.09,15.09,0,0,1,202.61,91a10.87,10.87,0,0,1-3.5-4.29,15,15,0,0,1-1.25-6.42,12.35,12.35,0,0,1,1.46-6.17,11.61,11.61,0,0,1,4-4.17,18.33,18.33,0,0,1,5.83-2.33,31.8,31.8,0,0,1,7-.75q1.17,0,2.42.13t2.38,0.33l2,0.38L224,68V65.84a17.46,17.46,0,0,0-.42-3.79,8.7,8.7,0,0,0-1.5-3.33,7.61,7.61,0,0,0-3-2.33,11.6,11.6,0,0,0-4.88-.87,36.69,36.69,0,0,0-6.71.54,23.59,23.59,0,0,0-4.29,1.13l-0.92-6.42a23.91,23.91,0,0,1,5-1.29A43.16,43.16,0,0,1,214.94,48.84Zm0.67,38.84q2.75,0,4.88-.12a21.31,21.31,0,0,0,3.54-.46V74.17a10,10,0,0,0-2.71-.71,30.28,30.28,0,0,0-4.54-.29,29.28,29.28,0,0,0-3.71.25,11.4,11.4,0,0,0-3.58,1,7.67,7.67,0,0,0-2.71,2.17,5.68,5.68,0,0,0-1.08,3.63q0,4.17,2.67,5.79A13.88,13.88,0,0,0,215.61,87.67Z" transform="translate(-19.37 -28.58)"/><path class="cls-2" d="M251.7,49.92h16.42v6.5H251.7v20a24,24,0,0,0,.5,5.38,8.07,8.07,0,0,0,1.5,3.33,5.39,5.39,0,0,0,2.5,1.71,11.06,11.06,0,0,0,3.5.5,16.45,16.45,0,0,0,5.63-.79q2.13-.79,3-1.12l1.5,6.42a28.81,28.81,0,0,1-4.08,1.46,23.24,23.24,0,0,1-6.67.88,20.21,20.21,0,0,1-7.29-1.12,10.62,10.62,0,0,1-4.63-3.38,13.51,13.51,0,0,1-2.46-5.54,36.5,36.5,0,0,1-.71-7.63V37.83l7.75-1.33V49.92Z" transform="translate(-19.37 -28.58)"/><path class="cls-2" d="M315,71.59a27.42,27.42,0,0,1-1.5,9.33,21.35,21.35,0,0,1-4.21,7.17,18.51,18.51,0,0,1-6.46,4.63,21.34,21.34,0,0,1-16.34,0,18.5,18.5,0,0,1-6.46-4.62,21.33,21.33,0,0,1-4.21-7.17,29.66,29.66,0,0,1,0-18.63,21.27,21.27,0,0,1,4.21-7.21,18.51,18.51,0,0,1,6.46-4.63,21.34,21.34,0,0,1,16.34,0,18.52,18.52,0,0,1,6.46,4.63,21.29,21.29,0,0,1,4.21,7.21A27.52,27.52,0,0,1,315,71.59Zm-8.08,0q0-7.33-3.29-11.63a11.5,11.5,0,0,0-17.92,0q-3.29,4.29-3.29,11.63t3.29,11.63a11.5,11.5,0,0,0,17.92,0Q307,78.92,307,71.59Z" transform="translate(-19.37 -28.58)"/><path class="cls-2" d="M342,49q1,0,2.29.13t2.54,0.33q1.25,0.21,2.29.42a14.39,14.39,0,0,1,1.54.38L349.3,57a26.31,26.31,0,0,0-3-.79,26.74,26.74,0,0,0-5.46-.46,20.35,20.35,0,0,0-4.29.46q-2.13.46-2.79,0.63V93.26H326V51.75a52.66,52.66,0,0,1,6.83-1.88A43.89,43.89,0,0,1,342,49Z" transform="translate(-19.37 -28.58)"/><path class="cls-2" d="M362.71,88.76a5.67,5.67,0,0,1-1.5,3.92,5.84,5.84,0,0,1-8.17,0,5.87,5.87,0,0,1,0-7.83,5.84,5.84,0,0,1,8.17,0A5.67,5.67,0,0,1,362.71,88.76Z" transform="translate(-19.37 -28.58)"/><path class="cls-2" d="M392.88,94.26a23.59,23.59,0,0,1-9.21-1.67A18.51,18.51,0,0,1,377,87.92a19.36,19.36,0,0,1-4-7.13,29.56,29.56,0,0,1-1.33-9.13,27.58,27.58,0,0,1,1.46-9.17,21.62,21.62,0,0,1,4.13-7.21,18.49,18.49,0,0,1,6.54-4.75,21.17,21.17,0,0,1,8.63-1.71,34.47,34.47,0,0,1,5.83.5,26.88,26.88,0,0,1,5.58,1.58l-1.75,6.58a18.71,18.71,0,0,0-4-1.33,22.87,22.87,0,0,0-4.88-.5q-6.5,0-10,4.08t-3.46,11.92a24.42,24.42,0,0,0,.79,6.42,13.22,13.22,0,0,0,2.5,5,11.13,11.13,0,0,0,4.38,3.21,16.72,16.72,0,0,0,6.5,1.13,24.58,24.58,0,0,0,5.58-.58,20.31,20.31,0,0,0,3.92-1.25l1.08,6.5a8.1,8.1,0,0,1-1.92.79,27.11,27.11,0,0,1-2.83.67q-1.58.29-3.38,0.5A30.24,30.24,0,0,1,392.88,94.26Z" transform="translate(-19.37 -28.58)"/><path class="cls-2" d="M450,71.59a27.42,27.42,0,0,1-1.5,9.33,21.36,21.36,0,0,1-4.21,7.17,18.51,18.51,0,0,1-6.46,4.63,21.34,21.34,0,0,1-16.34,0A18.5,18.5,0,0,1,415,88.09a21.33,21.33,0,0,1-4.21-7.17,29.67,29.67,0,0,1,0-18.63A21.27,21.27,0,0,1,415,55.09a18.51,18.51,0,0,1,6.46-4.63,21.34,21.34,0,0,1,16.34,0,18.52,18.52,0,0,1,6.46,4.63,21.3,21.3,0,0,1,4.21,7.21A27.52,27.52,0,0,1,450,71.59Zm-8.08,0q0-7.33-3.29-11.63a11.5,11.5,0,0,0-17.92,0q-3.29,4.29-3.29,11.63t3.29,11.63a11.5,11.5,0,0,0,17.92,0Q441.89,78.92,441.89,71.59Z" transform="translate(-19.37 -28.58)"/><path class="cls-2" d="M473.79,93.85a53.57,53.57,0,0,0,.81-7.26q0.49-6.32.49-10a18.9,18.9,0,0,0-.08-2.08L474.59,72q-5.55.95-9,9.28A32.55,32.55,0,0,0,463,93.34h-2.84q0.16-4.86-.22-12.32-0.37-6.12-.75-12.32l5-.44L463.08,81q5-11.43,12.1-11.43,3.31,0,3.31,9.66,3.87-9.35,9.6-9.35t5.4,19.2v6.82l-3.65.32q0-20.78-1.22-23.81-5.47-.57-8.25,8.46a40,40,0,0,0-2,12.51l-2.63.44Z" transform="translate(-19.37 -28.58)"/><path class="cls-2" d="M507.35,93.85a53.57,53.57,0,0,0,.81-7.26q0.49-6.32.49-10a18.89,18.89,0,0,0-.08-2.08L508.16,72q-5.55.95-9,9.28a32.55,32.55,0,0,0-2.61,12.06h-2.84q0.16-4.86-.22-12.32-0.37-6.12-.75-12.32l5-.44L496.65,81q5-11.43,12.1-11.43,3.31,0,3.31,9.66,3.87-9.35,9.6-9.35t5.4,19.2v6.82l-3.65.32q0-20.78-1.22-23.81-5.47-.57-8.25,8.46a40,40,0,0,0-2,12.51l-2.63.44Z" transform="translate(-19.37 -28.58)"/><path class="cls-2" d="M541.73,94.23q0,1.2-2.43,1.2a1.48,1.48,0,0,1-1.7-1.64,8.67,8.67,0,0,1,.12-1.23,8.52,8.52,0,0,0,.12-1.11q-1.3.89-2.68,1.71a5.78,5.78,0,0,1-3,.82,4.11,4.11,0,0,1-3.32-1.58,4.77,4.77,0,0,1-1.14-3.09V85.38q0-2.65.49-7.52,0.49-5.62.57-7.58,0.08-1,2.68-1,2.43,0,2.43.88a13,13,0,0,1-1,4,37.84,37.84,0,0,0-1.3,4.11,36.16,36.16,0,0,0-.65,7c0,0.08,0,.41-0.08,1s-0.08,1-.08,1.42q0,3.28,1.87,3.28a7.5,7.5,0,0,0,4.13-3.6q0.81-1.39,1.46-8.84,0.49-6,.49-9.09,0-1.07,2.27-1.07,2.11,0,2,.95A175.18,175.18,0,0,0,541.49,87V90.5Q541.73,93.66,541.73,94.23ZM532.4,82.1v0Zm0,0.19v0Z" transform="translate(-19.37 -28.58)"/><path class="cls-2" d="M556.41,68.65q-0.8-1-1.77-2.15l-0.08-.06q-2.25,0-4.58,6.19-1.93,5.18-1.93,7.33a1,1,0,0,1-.16.57l0.65,12.38q0.08,1-1.7,1a4.49,4.49,0,0,1-2.07-.47,1.38,1.38,0,0,1-.93-1.17l0.86-29.05a0.63,0.63,0,0,1,.78-0.63,3.85,3.85,0,0,1,2.16.88,2.12,2.12,0,0,1,1.14,1.77V68q2.59-4.11,5.84-4.11a3.51,3.51,0,0,1,2.35.76q2.19,1.14,3.24,9.73a172.55,172.55,0,0,1,1.14,21.41q0,1.45-2.43,1.45-1.78,0-1.78-1.14v-7.2q0.08-6.44-.08-10.93A78.32,78.32,0,0,0,556.41,68.65Z" transform="translate(-19.37 -28.58)"/><path class="cls-2" d="M572.3,66.81l-1,5.05V90.12l-0.24,6q-0.08,1.26-2.68,1.26T566,96.12l1.14-6.44,1-19.07-0.41-4.55q-0.08-.95,1.54-0.95a4.93,4.93,0,0,1,2.19.47A1.25,1.25,0,0,1,572.3,66.81ZM566.46,59a3.39,3.39,0,0,1,.89-2.37,2.93,2.93,0,0,1,2.27-1,3,3,0,0,1,2.23,1,3.32,3.32,0,0,1,.93,2.37,3.39,3.39,0,0,1-.93,2.43,3,3,0,0,1-2.23,1,2.93,2.93,0,0,1-2.27-1A3.47,3.47,0,0,1,566.46,59Z" transform="translate(-19.37 -28.58)"/><path class="cls-2" d="M608.94,63.28q2,0,2,1.07t-2.11,1.2l-24.57.57v3q-0.08,1.95-.49,6.85a66.73,66.73,0,0,0-.49,6.91,11.8,11.8,0,0,0,.32,2.26,12,12,0,0,1,.32,2.26q0,1.51-3.24,1.51-2.84,0-2.84-1.33a14,14,0,0,1,.65-3.66,36.31,36.31,0,0,0,1-3.6q0.08-3.85.73-11.49V66.12l-13.87.32a10,10,0,0,0-1.62.73,5.71,5.71,0,0,1-2,.73q-0.81,0-.81-1.33a3.87,3.87,0,0,1,.57-2,2.19,2.19,0,0,1,1.95-1.26h15.81l-0.73-9.09-1.13-3.47q-0.33-1.07,4-1.07,3.49,0,3.24.76l-1.3,5.08v7.81h24.65Z" transform="translate(-19.37 -28.58)"/><path class="cls-2" d="M598.48,103.26q1.86-.38,2.19-5.91t0.49-11.15q-1.78,3.41-4.38,3.41-4.54,0-7.05-8.78a42.16,42.16,0,0,1-1.86-11.94,3.6,3.6,0,0,1,.89-1.67,2.39,2.39,0,0,1,1.46-1.17q2,0,2,1.14,0,15.6,3.16,19.07a4.26,4.26,0,0,0,1.54,1q1.62-.57,3.24-6.44a66.05,66.05,0,0,0,2-16.93V63.59L602,62q-0.08-.63,3.49-0.63a0.28,0.28,0,0,1,.32.32,4.11,4.11,0,0,1-.73,1.71q0,17.81-.41,24.69-1.22,19.64-5.35,19.64-3.08,0-5.76-7-2.27-5.81-2.27-9.16a1.23,1.23,0,0,1,1.46-1.33q1.3,0,3.08,5.43Q598.16,102.69,598.48,103.26Z" transform="translate(-19.37 -28.58)"/><path class="cls-2" d="M622.32,84q0.89-4.74,1.14-5.62a13.59,13.59,0,0,1,3.41-5.75A6.87,6.87,0,0,1,634,67.57q8.11,0,8.11,10.48,4.05-2.4,4.7-2.4,1.7,0,1.7,1.07,0,0.38-6.41,4.17a13.06,13.06,0,0,1-2.84,7.52,10.43,10.43,0,0,1-8.84,4.74A7.73,7.73,0,0,1,624,90.31a8,8,0,0,1-1.78-5.18A7.16,7.16,0,0,1,622.32,84Zm4.62-6.06a26.57,26.57,0,0,0-1.7,6.91,6.15,6.15,0,0,0,1.22,3.52,4.38,4.38,0,0,0,3.81,2.26q3.08,0,5.35-3.13a12.06,12.06,0,0,0,2.11-4.7,7.68,7.68,0,0,1-1.86.44l-3.41-.44,3.41,0.44Q628.4,83.3,626.94,77.93ZM638.7,80V76.48a9.71,9.71,0,0,0-1-4q-1.38-2.9-3.73-2.91a3.64,3.64,0,0,0-3.24,2.27,6.54,6.54,0,0,0-1,3.22,6.22,6.22,0,0,0,1.38,3.79,5.6,5.6,0,0,0,4.62,2.27,5.53,5.53,0,0,0,1.95-.44A5.46,5.46,0,0,1,638.7,80Z" transform="translate(-19.37 -28.58)"/><path class="cls-2" d="M657.92,77.17a1.22,1.22,0,0,1,1.05-.44,1,1,0,0,1,1.22.95q0,1.33-4.95,1.77a19.81,19.81,0,0,1-3.16.51q-0.65,7.39-.65,18.5a24.76,24.76,0,0,0,1.13,5.87q0.4,0.38-1.69.63a21,21,0,0,1-3,.25,1,1,0,0,1-1.1-1,4.41,4.41,0,0,0,.32-1.63,29.74,29.74,0,0,1-.32-4.59q0-6,1.05-17.34H633.35a4.38,4.38,0,0,1-2.59-.95,2.72,2.72,0,0,1-1.3-2.21q0-1.39.89-1.39a0.49,0.49,0,0,1,.49.5,9.28,9.28,0,0,0,3,1.33h11.84a4.25,4.25,0,0,0,.81-0.13,6,6,0,0,1,1.3-.13q2.11-11.87,4.05-18.7,4.54-15.54,9.89-15.54,2.51,0,4.3,3.54a10.73,10.73,0,0,1,1.38,4.67q0,1-1.38,13.52-0.24,2-1.78,2a3,3,0,0,1-1.82-.82q-1-.82-0.69-1.26,0.08-1.39.39-3.92a83.11,83.11,0,0,0,1.48-9.66q0-4.93-1.93-6.13-3,0-5.43,8.62t-3.9,23.53Q654.51,77.49,657.92,77.17Z" transform="translate(-19.37 -28.58)"/><path class="cls-2" d="M693.35,93.85a53.57,53.57,0,0,0,.81-7.26q0.49-6.32.49-10a18.89,18.89,0,0,0-.08-2.08L694.15,72q-5.55.95-9,9.28a32.55,32.55,0,0,0-2.61,12.06h-2.84q0.16-4.86-.22-12.32-0.37-6.12-.75-12.32l5-.44L682.64,81q5-11.43,12.1-11.43,3.31,0,3.31,9.66,3.87-9.35,9.6-9.35T713,89v6.82l-3.65.32q0-20.78-1.22-23.81-5.47-.57-8.25,8.46a40,40,0,0,0-2,12.51l-2.63.44Z" transform="translate(-19.37 -28.58)"/><path class="cls-2" d="M732.1,89.62a48.51,48.51,0,0,1-10.46.82,23.84,23.84,0,0,1-7-1q-4.05-1.26-4.05-3.35,0-2.71,9.6-5.12a63.73,63.73,0,0,1,13.59-2.09l-0.17-1.7q0-.76-0.17-3.22l-0.08-2.4q-0.5-1.33-2.91-1.77-4.38,3.29-4.38,8a1.44,1.44,0,0,1-1,.95,3.79,3.79,0,0,1-1.7.51,3.7,3.7,0,0,1-1.62-.51,1.44,1.44,0,0,1-1-.95q0-2.65,2.92-6.06,3.4-3.85,7.3-3.85,6.73,0,6.73,10.29,0,1.08-.08,2.72t-0.08,2q0,5.37-.08,6.19-0.57,4.86-2.92,4.86a5.19,5.19,0,0,1-1.95-.54q-1.22-.54-1.22-0.92a5.48,5.48,0,0,1,.28-1.33A11.07,11.07,0,0,0,732.1,89.62Zm0.73-3.41q0-.13.32-1.58a2.25,2.25,0,0,0,0-1.71l-0.32-.63q-12,.32-18,3.09a2.92,2.92,0,0,1-.89.32l-0.16.38q0,1.58,8.35,1.58Q729.75,87.66,732.83,86.21Z" transform="translate(-19.37 -28.58)"/><path class="cls-2" d="M745.07,47.87l-0.73,24.51q9-2.27,13-2.27,4.13,0,4.13,2.15,0,2.65-5.76,5.75a34.82,34.82,0,0,1-9.16,3.54q0.57,6.57,11.59,10.61a81.08,81.08,0,0,0,19.87,4q4.21,0.38,4.22,1.33,0,0.51-1.71.95a7,7,0,0,1-2.52.32Q747.52,96,743.78,85.51v6.25q-0.08,1.33-1.78,1.33a3.45,3.45,0,0,0-1.18.32,3.6,3.6,0,0,1-1,.32c-0.16,0-.22-0.08-0.16-0.25V76.73a15.74,15.74,0,0,1-3,.32,1.17,1.17,0,0,1-1.33-1.33q0-.38,1.78-1.23A30.19,30.19,0,0,1,740.86,73l-0.73-23.81a1.54,1.54,0,0,1,1.05-1.52,5.36,5.36,0,0,1,2.43-.57A1.9,1.9,0,0,1,745.07,47.87Zm-0.73,27.76-0.24,3.69a37.38,37.38,0,0,0,9-2.91Q759,73.89,759,72.5l-1.13.44h-1.21a24.56,24.56,0,0,0-6.21.81Q749.91,73.94,744.34,75.63Z" transform="translate(-19.37 -28.58)"/><path class="cls-2" d="M765.83,96.75q-4.22,0-6.49-4.3a14.77,14.77,0,0,1-1.78-7.15,28.56,28.56,0,0,1,1.95-10.57q2.76-6.9,8.27-6.9a7.47,7.47,0,0,1,4.66,1.52,4.44,4.44,0,0,1,2,3.6q0,12.25-13.14,12.32,1.3,8.4,4.95,8.4a11.54,11.54,0,0,0,7.91-3.27q3.61-3.27,3.61-7a5.94,5.94,0,0,0-.49-2.35q-0.65-1.52,1-1.52,2.92,0,2.92,1A16.68,16.68,0,0,1,777.1,91Q772.48,96.75,765.83,96.75ZM767,71.55a12.37,12.37,0,0,0-2.19,2A11.2,11.2,0,0,0,763.32,77L762,82.6q5.11,0.44,7.22-2.72,1.38-2,1.95-6.82,0.16-1.2-1.46-1.26A16.17,16.17,0,0,1,767,71.55Z" transform="translate(-19.37 -28.58)"/><path class="cls-2" d="M791.86,75.28h-2.59a12.36,12.36,0,0,0-3.57.54q-1.78.53-3.49,1.1l1.3,17.44a0.45,0.45,0,0,1-.33.44,2.62,2.62,0,0,1-.83,0l-1-.06a4.2,4.2,0,0,1-1.69-.38,1.13,1.13,0,0,1-.87-0.88l1.13-15.73a10.44,10.44,0,0,1-2-.13q-1.66-.19-1.82-0.19a0.32,0.32,0,0,1-.41-0.32,2.61,2.61,0,0,1,.2-0.63,2.33,2.33,0,0,0,.2-0.7,1.21,1.21,0,0,1,1.05-1.14q1.05-.32,2.11-0.57V71q0-1.26,1.62-1.26T782.53,71v2.21A35.18,35.18,0,0,1,791,71.87q3.81,0,3.81,1.83a3.29,3.29,0,0,1-.61,1.61,1.65,1.65,0,0,1-1.26,1A1.56,1.56,0,0,1,791.86,75.28Z" transform="translate(-19.37 -28.58)"/><path class="cls-2" d="M812.37,72.82q0-3.09-3.73-3.09a6.38,6.38,0,0,0-1.22.13,6.08,6.08,0,0,0-5.19,3.6,30.37,30.37,0,0,0-1.46,5,7.52,7.52,0,0,0-.08,1.07q0,2.15,2.59,3.35a27.81,27.81,0,0,0,5.51,1.71,16.69,16.69,0,0,1,5.11,1.83l1.54,0.95a2,2,0,0,1,1,1.2q0.24,2.21-5,3.6a30.59,30.59,0,0,1-7.95,1.14,22.76,22.76,0,0,1-6.41-.95Q793,91.19,793,89.43a4,4,0,0,1,1.26-2.31,3.38,3.38,0,0,1,2.31-1.42,3.27,3.27,0,0,0,1.22-.38c0.05,0,.08.08,0.08,0.25a6.08,6.08,0,0,1-.77,1.83,5.38,5.38,0,0,0-.77,2.08,5.78,5.78,0,0,1,1.46.88,24.25,24.25,0,0,0,5.67.82,27.07,27.07,0,0,0,5-.51q3.65-.63,3.65-1.77t-4.3-2A38,38,0,0,1,800,84.44q-4.22-2.15-4.22-6.13a12.78,12.78,0,0,1,2.59-7.45,9.93,9.93,0,0,1,8.35-4.42,11.05,11.05,0,0,1,6.57,2,7.53,7.53,0,0,1,3.16,4.42,7.79,7.79,0,0,1-.81,4.29q-1.22,3-3.08,3-3.08,0-3.08-.69a23,23,0,0,0,1.46-2.5A9.36,9.36,0,0,0,812.37,72.82Z" transform="translate(-19.37 -28.58)"/><polygon class="cls-2" points="17.2 28.52 8.6 21.34 0 28.52 4.13 28.52 4.13 66.13 12.47 66.13 12.47 28.52 17.2 28.52"/></svg>